<?xml version="1.0" encoding="utf-8"?>
<!-- Generator: Adobe Illustrator 19.0.0, SVG Export Plug-In . SVG Version: 6.00 Build 0)  -->
<svg version="1.1" id="Layer_1" xmlns:sketch="http://www.bohemiancoding.com/sketch/ns"
	 xmlns="http://www.w3.org/2000/svg" xmlns:xlink="http://www.w3.org/1999/xlink" x="0px" y="0px" viewBox="-680 728 139 46"
	 style="enable-background:new -680 728 139 46;" xml:space="preserve">
<style type="text/css">
	.st0{}
	.st1{}
	.st2{}
</style>
<g id="Page-1" sketch:type="MSPage">
	<g transform="translate(-2.000000, -3.000000)" sketch:type="MSLayerGroup">
		<path id="Shape" sketch:type="MSShapeGroup" style="fill:#442109;" d="M-539.8,756.3c0.2,9.1-7.3,16.5-16.8,16.7c0,0-22.5,3.4-50.3,3.9
			c-28.5,0.5-53.2-2-53.2-2c-9.5,0.2-17.2-7-17.4-16.1l0,0c-0.2-9.1,0.1-16.4,9.5-16.6c0,0,19.9,5.7,59.2,4.9
			c42.5-0.8,59.1-7.1,59.1-7.1C-540.3,740-539.9,747.3-539.8,756.3L-539.8,756.3L-539.8,756.3z"/>
		<path id="Shape_1_" sketch:type="MSShapeGroup" style="fill:#6D4B33;" d="M-539.8,754.1c0.2,9.1-7.3,16.5-16.8,16.7c0,0-22.5,3.4-50.3,3.9
			c-28.5,0.5-53.2-2-53.2-2c-9.5,0.2-17.2-7-17.4-16.1l0,0c-0.2-9.1,0.1-16.4,9.5-16.6c0,0,19.9,5.7,59.2,4.9
			c42.5-0.8,59.1-7.1,59.1-7.1C-540.3,737.8-539.9,745.1-539.8,754.1L-539.8,754.1L-539.8,754.1z"/>
		<path id="Oval" sketch:type="MSShapeGroup" style="fill:#774C32;" d="M-609,731c35.9-0.7,65.2,3.1,65.3,8.4s-29,10.1-64.9,10.8
			c-35.9,0.7-65.2-3.1-65.3-8.4C-674,736.5-645,731.7-609,731z"/>
	</g>
</g>
</svg>
